<svg id="visual" viewBox="0 0 450 900" width="450" height="900" xmlns="http://www.w3.org/2000/svg" xmlns:xlink="http://www.w3.org/1999/xlink" version="1.1"><rect width="450" height="900" fill="#E5CABA"></rect><g><g transform="translate(330 801)"><path d="M34.1 20.1C22 40.7 -25.4 41.4 -37 21.1C-48.6 0.8 -24.3 -40.5 -0.6 -40.8C23.1 -41.1 46.3 -0.5 34.1 20.1Z" fill="none" stroke="#FC4C4C" stroke-width="20"></path></g><g transform="translate(26 841)"><path d="M29.8 17C20 34.2 -19.3 34 -29.2 16.8C-39.1 -0.4 -19.6 -34.7 0.1 -34.6C19.8 -34.5 39.6 -0.1 29.8 17Z" fill="none" stroke="#FC4C4C" stroke-width="20"></path></g><g transform="translate(399 219)"><path d="M28.4 17.5C17 36.1 -25.6 37.7 -35.6 20C-45.5 2.2 -22.8 -35.1 -1.4 -35.9C19.9 -36.7 39.8 -1.1 28.4 17.5Z" stroke="#FC4C4C" fill="none" stroke-width="20"></path></g></g></svg>