<svg id="visual" viewBox="0 0 900 450" width="900" height="450" xmlns="http://www.w3.org/2000/svg" xmlns:xlink="http://www.w3.org/1999/xlink" version="1.1"><path d="M0 109L50 109.8C100 110.7 200 112.3 300 137.2C400 162 500 210 600 202.5C700 195 800 132 850 100.5L900 69L900 0L850 0C800 0 700 0 600 0C500 0 400 0 300 0C200 0 100 0 50 0L0 0Z" fill="#f38a67"></path><path d="M0 195L50 196.5C100 198 200 201 300 219.7C400 238.3 500 272.7 600 251.7C700 230.7 800 154.3 850 116.2L900 78L900 67L850 98.5C800 130 700 193 600 200.5C500 208 400 160 300 135.2C200 110.3 100 108.7 50 107.8L0 107Z" fill="#f86f56"></path><path d="M0 226L50 232C100 238 200 250 300 267.3C400 284.7 500 307.3 600 276.7C700 246 800 162 850 120L900 78L900 76L850 114.2C800 152.3 700 228.7 600 249.7C500 270.7 400 236.3 300 217.7C200 199 100 196 50 194.5L0 193Z" fill="#fc4c4c"></path><path d="M0 249L50 252C100 255 200 261 300 279C400 297 500 327 600 303.7C700 280.3 800 203.7 850 165.3L900 127L900 76L850 118C800 160 700 244 600 274.7C500 305.3 400 282.7 300 265.3C200 248 100 236 50 230L0 224Z" fill="#fc4c4c"></path><path d="M0 384L50 387C100 390 200 396 300 404.2C400 412.3 500 422.7 600 427.2C700 431.7 800 430.3 850 429.7L900 429L900 125L850 163.3C800 201.7 700 278.3 600 301.7C500 325 400 295 300 277C200 259 100 253 50 250L0 247Z" fill="#f86f56"></path><path d="M0 451L50 451C100 451 200 451 300 451C400 451 500 451 600 451C700 451 800 451 850 451L900 451L900 427L850 427.7C800 428.3 700 429.7 600 425.2C500 420.7 400 410.3 300 402.2C200 394 100 388 50 385L0 382Z" fill="#f38a67"></path></svg>