<svg id="visual" viewBox="0 0 350 600" width="350" height="600" xmlns="http://www.w3.org/2000/svg" xmlns:xlink="http://www.w3.org/1999/xlink" version="1.1"><rect x="0" y="0" width="350" height="600" fill="#F38A67"></rect><defs><linearGradient id="grad1_0" x1="0%" y1="0%" x2="100%" y2="100%"><stop offset="30%" stop-color="#fc4c4c" stop-opacity="1"></stop><stop offset="70%" stop-color="#fc4c4c" stop-opacity="1"></stop></linearGradient></defs><defs><linearGradient id="grad1_1" x1="0%" y1="0%" x2="100%" y2="100%"><stop offset="30%" stop-color="#fc4c4c" stop-opacity="1"></stop><stop offset="70%" stop-color="#f38a67" stop-opacity="1"></stop></linearGradient></defs><defs><linearGradient id="grad2_0" x1="0%" y1="0%" x2="100%" y2="100%"><stop offset="30%" stop-color="#fc4c4c" stop-opacity="1"></stop><stop offset="70%" stop-color="#fc4c4c" stop-opacity="1"></stop></linearGradient></defs><defs><linearGradient id="grad2_1" x1="0%" y1="0%" x2="100%" y2="100%"><stop offset="30%" stop-color="#f38a67" stop-opacity="1"></stop><stop offset="70%" stop-color="#fc4c4c" stop-opacity="1"></stop></linearGradient></defs><g transform="translate(350, 0)"><path d="M0 173.7C-20.1 163.3 -40.2 152.9 -59.7 144.1C-79.2 135.3 -98 128.1 -116 116C-133.9 103.8 -151 86.6 -160.4 66.5C-169.9 46.3 -171.8 23.1 -173.7 0L0 0Z" fill="#f86f56"></path><path d="M0 86.8C-10.1 81.6 -20.1 76.5 -29.8 72.1C-39.6 67.7 -49 64.1 -58 58C-67 51.9 -75.5 43.3 -80.2 33.2C-85 23.1 -85.9 11.6 -86.8 0L0 0Z" fill="#fc4c4c"></path></g><g transform="translate(0, 600)"><path d="M0 -173.7C22.9 -171.2 45.7 -168.7 66.5 -160.4C87.2 -152.1 105.7 -138 121.6 -121.6C137.5 -105.2 150.7 -86.5 158.9 -65.8C167.1 -45.2 170.4 -22.6 173.7 0L0 0Z" fill="#f86f56"></path><path d="M0 -86.8C11.4 -85.6 22.9 -84.4 33.2 -80.2C43.6 -76.1 52.9 -69 60.8 -60.8C68.7 -52.6 75.3 -43.2 79.5 -32.9C83.6 -22.6 85.2 -11.3 86.8 0L0 0Z" fill="#fc4c4c"></path></g></svg>