<svg id="visual" viewBox="0 0 600 900" width="600" height="900" xmlns="http://www.w3.org/2000/svg" xmlns:xlink="http://www.w3.org/1999/xlink" version="1.1"><rect x="0" y="0" width="600" height="900" fill="#F38A67"></rect><defs><linearGradient id="grad1_0" x1="0%" y1="0%" x2="100%" y2="100%"><stop offset="30%" stop-color="#fc4c4c" stop-opacity="1"></stop><stop offset="70%" stop-color="#fc4c4c" stop-opacity="1"></stop></linearGradient></defs><defs><linearGradient id="grad1_1" x1="0%" y1="0%" x2="100%" y2="100%"><stop offset="30%" stop-color="#fc4c4c" stop-opacity="1"></stop><stop offset="70%" stop-color="#f86f56" stop-opacity="1"></stop></linearGradient></defs><defs><linearGradient id="grad1_2" x1="0%" y1="0%" x2="100%" y2="100%"><stop offset="30%" stop-color="#f38a67" stop-opacity="1"></stop><stop offset="70%" stop-color="#f86f56" stop-opacity="1"></stop></linearGradient></defs><defs><linearGradient id="grad2_0" x1="0%" y1="0%" x2="100%" y2="100%"><stop offset="30%" stop-color="#fc4c4c" stop-opacity="1"></stop><stop offset="70%" stop-color="#fc4c4c" stop-opacity="1"></stop></linearGradient></defs><defs><linearGradient id="grad2_1" x1="0%" y1="0%" x2="100%" y2="100%"><stop offset="30%" stop-color="#f86f56" stop-opacity="1"></stop><stop offset="70%" stop-color="#fc4c4c" stop-opacity="1"></stop></linearGradient></defs><defs><linearGradient id="grad2_2" x1="0%" y1="0%" x2="100%" y2="100%"><stop offset="30%" stop-color="#f86f56" stop-opacity="1"></stop><stop offset="70%" stop-color="#f38a67" stop-opacity="1"></stop></linearGradient></defs><g transform="translate(600, 0)"><path d="M0 486.7C-26.2 471.2 -52.5 455.7 -79.5 451C-106.6 446.3 -134.5 452.4 -164.5 452C-194.6 451.5 -226.8 444.5 -241 417.4C-255.2 390.3 -251.5 343.1 -271.9 324C-292.3 305 -337 314 -360 302.1C-383.1 290.2 -384.5 257.3 -403.6 233C-422.7 208.7 -459.5 193.1 -457.4 166.5C-455.3 139.9 -414.2 102.3 -412.6 72.8C-411 43.2 -448.9 21.6 -486.7 0L0 0Z" fill="#f67d5e"></path><path d="M0 324.5C-17.5 314.2 -35 303.8 -53 300.7C-71.1 297.6 -89.6 301.6 -109.7 301.3C-129.7 301 -151.2 296.4 -160.7 278.3C-170.1 260.2 -167.6 228.7 -181.3 216C-194.9 203.3 -224.7 209.4 -240 201.4C-255.4 193.5 -256.3 171.5 -269 155.3C-281.8 139.1 -306.3 128.7 -304.9 111C-303.5 93.3 -276.2 68.2 -275.1 48.5C-274 28.8 -299.3 14.4 -324.5 0L0 0Z" fill="#fa5f50"></path><path d="M0 162.2C-8.7 157.1 -17.5 151.9 -26.5 150.3C-35.5 148.8 -44.8 150.8 -54.8 150.7C-64.9 150.5 -75.6 148.2 -80.3 139.1C-85.1 130.1 -83.8 114.4 -90.6 108C-97.4 101.7 -112.3 104.7 -120 100.7C-127.7 96.7 -128.2 85.8 -134.5 77.7C-140.9 69.6 -153.2 64.4 -152.5 55.5C-151.8 46.6 -138.1 34.1 -137.5 24.3C-137 14.4 -149.6 7.2 -162.2 0L0 0Z" fill="#fc4c4c"></path></g><g transform="translate(0, 900)"><path d="M0 -486.7C28.1 -485.1 56.1 -483.5 84.5 -479.4C112.9 -475.2 141.7 -468.7 163.5 -449.2C185.3 -429.7 200.1 -397.3 215.5 -373.3C230.9 -349.2 246.9 -333.6 273.2 -325.6C299.4 -317.5 335.9 -317 363.1 -304.7C390.3 -292.4 408.1 -268.2 418.3 -241.5C428.4 -214.8 430.9 -185.5 435.1 -158.4C439.2 -131.2 445.1 -106.1 454 -80.1C462.9 -54 474.8 -27 486.7 0L0 0Z" fill="#f67d5e"></path><path d="M0 -324.5C18.7 -323.4 37.4 -322.3 56.3 -319.6C75.3 -316.8 94.5 -312.4 109 -299.4C123.5 -286.5 133.4 -264.8 143.7 -248.8C153.9 -232.8 164.6 -222.4 182.1 -217C199.6 -211.7 224 -211.3 242.1 -203.1C260.2 -194.9 272.1 -178.8 278.9 -161C285.6 -143.2 287.3 -123.7 290.1 -105.6C292.8 -87.5 296.7 -70.7 302.7 -53.4C308.6 -36 316.5 -18 324.5 0L0 0Z" fill="#fa5f50"></path><path d="M0 -162.2C9.4 -161.7 18.7 -161.2 28.2 -159.8C37.6 -158.4 47.2 -156.2 54.5 -149.7C61.8 -143.2 66.7 -132.4 71.8 -124.4C77 -116.4 82.3 -111.2 91.1 -108.5C99.8 -105.8 112 -105.7 121 -101.6C130.1 -97.5 136 -89.4 139.4 -80.5C142.8 -71.6 143.6 -61.8 145 -52.8C146.4 -43.7 148.4 -35.4 151.3 -26.7C154.3 -18 158.3 -9 162.2 0L0 0Z" fill="#fc4c4c"></path></g></svg>